<svg width="29" height="8" viewBox="0 0 29 8" fill="none" xmlns="http://www.w3.org/2000/svg">
<path d="M5.38086 7L4.83887 5.59863H1.87988L1.32812 7H0.0878906L2.88086 -0.00195312H3.8623L6.65039 7H5.38086ZM2.30957 4.48047H4.39941L3.35938 1.7998L2.30957 4.48047ZM10.9521 -0.00195312H12.0752V7H10.9521V6.14062C10.7731 6.44987 10.5371 6.6875 10.2441 6.85352C9.95117 7.01628 9.611 7.09766 9.22363 7.09766C8.7972 7.09766 8.40495 6.98535 8.04688 6.76074C7.6888 6.53288 7.4056 6.22363 7.19727 5.83301C6.98893 5.43913 6.88477 5.01107 6.88477 4.54883C6.88477 4.08659 6.98893 3.66016 7.19727 3.26953C7.4056 2.87891 7.6888 2.57129 8.04688 2.34668C8.40495 2.12207 8.7972 2.00977 9.22363 2.00977C9.611 2.00977 9.95117 2.09277 10.2441 2.25879C10.5371 2.4248 10.7731 2.66243 10.9521 2.97168V-0.00195312ZM9.46289 6.03809C9.88607 6.03809 10.2393 5.89648 10.5225 5.61328C10.8089 5.32682 10.9521 4.97201 10.9521 4.54883C10.9521 4.12891 10.8089 3.77734 10.5225 3.49414C10.2393 3.21094 9.88607 3.06934 9.46289 3.06934C9.04948 3.06934 8.69954 3.21419 8.41309 3.50391C8.12663 3.79036 7.9834 4.13867 7.9834 4.54883C7.9834 4.96549 8.12663 5.31868 8.41309 5.6084C8.69954 5.89486 9.04948 6.03809 9.46289 6.03809ZM16.7578 2.1123H17.876V7H16.7578V6.22852C16.6016 6.50846 16.3981 6.72331 16.1475 6.87305C15.8968 7.02279 15.6104 7.09766 15.2881 7.09766C14.6566 7.09766 14.1602 6.90234 13.7988 6.51172C13.4375 6.11784 13.2568 5.57747 13.2568 4.89062V2.1123H14.3652V4.75879C14.3652 5.1429 14.4743 5.45052 14.6924 5.68164C14.9105 5.91276 15.1986 6.02832 15.5566 6.02832C15.918 6.02832 16.2077 5.91276 16.4258 5.68164C16.6471 5.45052 16.7578 5.1429 16.7578 4.75879V2.1123ZM20.1562 -0.00195312V7H19.0479V-0.00195312H20.1562ZM24.1943 3.17188H22.9102V5.13965C22.9102 5.43587 22.9915 5.6556 23.1543 5.79883C23.3203 5.9388 23.5465 6.00879 23.833 6.00879C23.973 6.00879 24.0934 5.99577 24.1943 5.96973V7C24.0218 7.03906 23.8216 7.05859 23.5938 7.05859C23.0436 7.05859 22.6058 6.89421 22.2803 6.56543C21.9548 6.23665 21.792 5.7679 21.792 5.15918V3.17188H20.8643V2.1123H21.792V0.798828H22.9102V2.1123H24.1943V3.17188ZM26.8945 7.09766C26.2891 7.09766 25.7926 6.94954 25.4053 6.65332C25.0179 6.3571 24.7998 5.94857 24.751 5.42773H25.8203C25.8398 5.63932 25.944 5.81185 26.1328 5.94531C26.3216 6.07552 26.5544 6.14062 26.8311 6.14062C27.098 6.14062 27.3079 6.08854 27.4609 5.98438C27.6139 5.88021 27.6904 5.74186 27.6904 5.56934C27.6904 5.42936 27.6383 5.31543 27.5342 5.22754C27.43 5.13639 27.2949 5.06966 27.1289 5.02734C26.9629 4.98177 26.779 4.94108 26.5771 4.90527C26.3786 4.86947 26.1784 4.82389 25.9766 4.76855C25.7747 4.71322 25.5908 4.6416 25.4248 4.55371C25.2588 4.46257 25.1237 4.3291 25.0195 4.15332C24.9154 3.97428 24.8633 3.75944 24.8633 3.50879C24.8633 3.07585 25.0309 2.71777 25.3662 2.43457C25.7048 2.15137 26.154 2.00977 26.7139 2.00977C27.2412 2.00977 27.6921 2.14486 28.0664 2.41504C28.4408 2.68522 28.6556 3.05957 28.7109 3.53809H27.5928C27.5667 3.36556 27.4723 3.22396 27.3096 3.11328C27.1468 2.99935 26.9417 2.94238 26.6943 2.94238C26.473 2.94238 26.2923 2.98796 26.1523 3.0791C26.0124 3.16699 25.9424 3.28743 25.9424 3.44043C25.9424 3.55762 25.9831 3.65527 26.0645 3.7334C26.1458 3.81152 26.2533 3.86849 26.3867 3.9043C26.5202 3.93685 26.6715 3.97103 26.8408 4.00684C27.0101 4.04264 27.1842 4.0752 27.3633 4.10449C27.5423 4.13379 27.7165 4.18424 27.8857 4.25586C28.055 4.32422 28.2064 4.40723 28.3398 4.50488C28.4733 4.60254 28.5807 4.74251 28.6621 4.9248C28.7435 5.10384 28.7842 5.31543 28.7842 5.55957C28.7842 5.99902 28.6035 6.36523 28.2422 6.6582C27.8841 6.95117 27.4349 7.09766 26.8945 7.09766Z" fill="#D3D3D3"/>
</svg>
