<svg width="39" height="9" viewBox="0 0 39 9" fill="none" xmlns="http://www.w3.org/2000/svg">
<path d="M3.9209 8.09766C3.42936 8.09766 2.96549 8.00488 2.5293 7.81934C2.0931 7.63379 1.71875 7.38151 1.40625 7.0625C1.09701 6.74349 0.851237 6.361 0.668945 5.91504C0.489909 5.46908 0.400391 4.99382 0.400391 4.48926C0.400391 3.98796 0.489909 3.51595 0.668945 3.07324C0.851237 2.62728 1.09701 2.24642 1.40625 1.93066C1.71875 1.61165 2.0931 1.361 2.5293 1.17871C2.96549 0.993164 3.42936 0.900391 3.9209 0.900391C4.4515 0.900391 4.95117 1.00618 5.41992 1.21777C5.89193 1.42936 6.28255 1.72559 6.5918 2.10645C6.9043 2.48405 7.09635 2.90885 7.16797 3.38086H5.87891C5.76497 2.98372 5.52734 2.66146 5.16602 2.41406C4.80469 2.16341 4.38965 2.03809 3.9209 2.03809C3.2666 2.03809 2.7181 2.27246 2.27539 2.74121C1.83268 3.20996 1.61133 3.79264 1.61133 4.48926C1.61133 5.18913 1.83268 5.77669 2.27539 6.25195C2.7181 6.72396 3.2666 6.95996 3.9209 6.95996C4.39616 6.95996 4.81608 6.82812 5.18066 6.56445C5.5485 6.29753 5.78451 5.95247 5.88867 5.5293H7.19238C7.05241 6.28776 6.67806 6.90625 6.06934 7.38477C5.46387 7.86003 4.74772 8.09766 3.9209 8.09766ZM10.7764 3.00977C11.4014 3.00977 11.8962 3.20671 12.2607 3.60059C12.6253 3.99447 12.8076 4.53158 12.8076 5.21191V8H11.6895V5.34863C11.6895 4.96452 11.5804 4.6569 11.3623 4.42578C11.1475 4.19466 10.8626 4.0791 10.5078 4.0791C10.14 4.0791 9.84538 4.19466 9.62402 4.42578C9.40592 4.6569 9.29688 4.96452 9.29688 5.34863V8H8.18848V0.998047H9.29688V3.87891C9.45312 3.60221 9.6582 3.389 9.91211 3.23926C10.166 3.08626 10.4541 3.00977 10.7764 3.00977ZM14.0381 1.05176C14.1781 0.911784 14.3457 0.841797 14.541 0.841797C14.7363 0.841797 14.904 0.911784 15.0439 1.05176C15.1872 1.19173 15.2588 1.35775 15.2588 1.5498C15.2588 1.74837 15.1872 1.91764 15.0439 2.05762C14.904 2.19759 14.7363 2.26758 14.541 2.26758C14.3457 2.26758 14.1781 2.19759 14.0381 2.05762C13.8981 1.91764 13.8281 1.74837 13.8281 1.5498C13.8281 1.35775 13.8981 1.19173 14.0381 1.05176ZM13.9795 3.1123H15.0879V8H13.9795V3.1123ZM17.4316 0.998047V8H16.3232V0.998047H17.4316ZM22.3389 0.998047H23.4619V8H22.3389V7.14062C22.1598 7.44987 21.9238 7.6875 21.6309 7.85352C21.3379 8.01628 20.9977 8.09766 20.6104 8.09766C20.1839 8.09766 19.7917 7.98535 19.4336 7.76074C19.0755 7.53288 18.7923 7.22363 18.584 6.83301C18.3757 6.43913 18.2715 6.01107 18.2715 5.54883C18.2715 5.08659 18.3757 4.66016 18.584 4.26953C18.7923 3.87891 19.0755 3.57129 19.4336 3.34668C19.7917 3.12207 20.1839 3.00977 20.6104 3.00977C20.9977 3.00977 21.3379 3.09277 21.6309 3.25879C21.9238 3.4248 22.1598 3.66243 22.3389 3.97168V0.998047ZM20.8496 7.03809C21.2728 7.03809 21.626 6.89648 21.9092 6.61328C22.1956 6.32682 22.3389 5.97201 22.3389 5.54883C22.3389 5.12891 22.1956 4.77734 21.9092 4.49414C21.626 4.21094 21.2728 4.06934 20.8496 4.06934C20.4362 4.06934 20.0863 4.21419 19.7998 4.50391C19.5133 4.79036 19.3701 5.13867 19.3701 5.54883C19.3701 5.96549 19.5133 6.31868 19.7998 6.6084C20.0863 6.89486 20.4362 7.03809 20.8496 7.03809ZM27.0703 3.00977C27.1777 3.00977 27.3324 3.0293 27.5342 3.06836V4.08887C27.3454 4.04329 27.181 4.02051 27.041 4.02051C26.6732 4.02051 26.3656 4.14258 26.1182 4.38672C25.874 4.63086 25.752 4.96452 25.752 5.3877V8H24.6436V3.1123H25.752V3.76172C26.0612 3.26042 26.5007 3.00977 27.0703 3.00977ZM32.6123 5.45117C32.6123 5.67578 32.6025 5.83203 32.583 5.91992H28.833C28.9046 6.28451 29.0641 6.57096 29.3115 6.7793C29.5589 6.98763 29.8763 7.0918 30.2637 7.0918C30.5632 7.0918 30.8203 7.02669 31.0352 6.89648C31.2533 6.76628 31.3867 6.59701 31.4355 6.38867H32.5537C32.4626 6.90299 32.2054 7.31641 31.7822 7.62891C31.359 7.94141 30.8464 8.09766 30.2441 8.09766C29.7721 8.09766 29.3424 7.98698 28.9551 7.76562C28.5677 7.54102 28.2617 7.23177 28.0371 6.83789C27.8158 6.44401 27.7051 6.00781 27.7051 5.5293C27.7051 5.0638 27.8158 4.639 28.0371 4.25488C28.2617 3.86751 28.5661 3.56315 28.9502 3.3418C29.3376 3.12044 29.7624 3.00977 30.2246 3.00977C30.6608 3.00977 31.0596 3.1123 31.4209 3.31738C31.7855 3.52246 32.0752 3.8138 32.29 4.19141C32.5049 4.56576 32.6123 4.98568 32.6123 5.45117ZM28.8623 4.96777H31.4014C31.3525 4.68457 31.2158 4.45671 30.9912 4.28418C30.7699 4.1084 30.4932 4.02051 30.1611 4.02051C29.8324 4.02051 29.554 4.10352 29.3262 4.26953C29.0983 4.43555 28.9437 4.66829 28.8623 4.96777ZM36.1279 3.00977C36.7529 3.00977 37.2477 3.20671 37.6123 3.60059C37.9769 3.99447 38.1592 4.53158 38.1592 5.21191V8H37.041V5.34863C37.041 4.96452 36.932 4.6569 36.7139 4.42578C36.499 4.19466 36.2142 4.0791 35.8594 4.0791C35.4915 4.0791 35.1969 4.19466 34.9756 4.42578C34.7575 4.6569 34.6484 4.96452 34.6484 5.34863V8H33.54V3.1123H34.6484V3.87891C34.8047 3.60221 35.0098 3.389 35.2637 3.23926C35.5176 3.08626 35.8057 3.00977 36.1279 3.00977Z" fill="#D3D3D3"/>
</svg>
