<svg width="72" height="16" viewBox="0 0 72 16" fill="none" xmlns="http://www.w3.org/2000/svg">
<path d="M27.9395 4.99805C28.431 4.99805 28.8932 5.08594 29.3262 5.26172C29.7591 5.4375 30.1302 5.67839 30.4395 5.98438C30.7487 6.28711 30.9928 6.65495 31.1719 7.08789C31.3509 7.51758 31.4404 7.97819 31.4404 8.46973C31.4404 8.96777 31.3509 9.43652 31.1719 9.87598C30.9928 10.3122 30.7487 10.6865 30.4395 10.999C30.1302 11.3083 29.7591 11.5524 29.3262 11.7314C28.8932 11.9105 28.431 12 27.9395 12H25.6396V4.99805H27.9395ZM28.0176 10.8818C28.6523 10.8818 29.1813 10.6523 29.6045 10.1934C30.0277 9.73438 30.2393 9.15983 30.2393 8.46973C30.2393 7.78613 30.0293 7.22461 29.6094 6.78516C29.1895 6.34245 28.6589 6.12109 28.0176 6.12109H26.8115V10.8818H28.0176ZM36.9971 9.45117C36.9971 9.67578 36.9873 9.83203 36.9678 9.91992H33.2178C33.2894 10.2845 33.4489 10.571 33.6963 10.7793C33.9437 10.9876 34.2611 11.0918 34.6484 11.0918C34.9479 11.0918 35.2051 11.0267 35.4199 10.8965C35.638 10.7663 35.7715 10.597 35.8203 10.3887H36.9385C36.8473 10.903 36.5902 11.3164 36.167 11.6289C35.7438 11.9414 35.2311 12.0977 34.6289 12.0977C34.1569 12.0977 33.7272 11.987 33.3398 11.7656C32.9525 11.541 32.6465 11.2318 32.4219 10.8379C32.2005 10.444 32.0898 10.0078 32.0898 9.5293C32.0898 9.0638 32.2005 8.639 32.4219 8.25488C32.6465 7.86751 32.9508 7.56315 33.335 7.3418C33.7223 7.12044 34.1471 7.00977 34.6094 7.00977C35.0456 7.00977 35.4443 7.1123 35.8057 7.31738C36.1702 7.52246 36.46 7.8138 36.6748 8.19141C36.8896 8.56576 36.9971 8.98568 36.9971 9.45117ZM33.2471 8.96777H35.7861C35.7373 8.68457 35.6006 8.45671 35.376 8.28418C35.1546 8.1084 34.8779 8.02051 34.5459 8.02051C34.2171 8.02051 33.9388 8.10352 33.7109 8.26953C33.4831 8.43555 33.3285 8.66829 33.2471 8.96777ZM40.7764 7.00977C41.2028 7.00977 41.5934 7.1237 41.9482 7.35156C42.3063 7.57943 42.5879 7.88867 42.793 8.2793C43.0013 8.66992 43.1055 9.09635 43.1055 9.55859C43.1055 10.265 42.8792 10.8656 42.4268 11.3604C41.9743 11.8519 41.4242 12.0977 40.7764 12.0977C40.3857 12.0977 40.0423 12.013 39.7461 11.8438C39.4499 11.6745 39.2122 11.4336 39.0332 11.1211V13.709H37.9248V7.1123H39.0332V7.99121C39.2122 7.67546 39.4499 7.43294 39.7461 7.26367C40.0423 7.0944 40.3857 7.00977 40.7764 7.00977ZM40.5322 11.0381C40.9456 11.0381 41.2956 10.8949 41.582 10.6084C41.8685 10.3187 42.0117 9.96875 42.0117 9.55859C42.0117 9.14193 41.8685 8.79036 41.582 8.50391C41.2956 8.21419 40.9456 8.06934 40.5322 8.06934C40.1025 8.06934 39.7445 8.21094 39.458 8.49414C39.1748 8.77734 39.0332 9.13216 39.0332 9.55859C39.0332 9.97852 39.1748 10.3301 39.458 10.6133C39.7445 10.8965 40.1025 11.0381 40.5322 11.0381ZM47.7686 7.1123H48.8916V12H47.7686V11.1406C47.5895 11.4499 47.3535 11.6875 47.0605 11.8535C46.7676 12.0163 46.4274 12.0977 46.04 12.0977C45.6136 12.0977 45.2214 11.9854 44.8633 11.7607C44.5052 11.5329 44.222 11.2236 44.0137 10.833C43.8053 10.4391 43.7012 10.0111 43.7012 9.54883C43.7012 9.08659 43.8053 8.66016 44.0137 8.26953C44.222 7.87891 44.5052 7.57129 44.8633 7.34668C45.2214 7.12207 45.6136 7.00977 46.04 7.00977C46.4274 7.00977 46.7676 7.09277 47.0605 7.25879C47.3535 7.4248 47.5895 7.66243 47.7686 7.97168V7.1123ZM46.2793 11.0381C46.7025 11.0381 47.0557 10.8965 47.3389 10.6133C47.6253 10.3268 47.7686 9.97201 47.7686 9.54883C47.7686 9.12891 47.6253 8.77734 47.3389 8.49414C47.0557 8.21094 46.7025 8.06934 46.2793 8.06934C45.8659 8.06934 45.516 8.21419 45.2295 8.50391C44.943 8.79036 44.7998 9.13867 44.7998 9.54883C44.7998 9.96549 44.943 10.3187 45.2295 10.6084C45.516 10.8949 45.8659 11.0381 46.2793 11.0381ZM52.5 7.00977C52.6074 7.00977 52.762 7.0293 52.9639 7.06836V8.08887C52.7751 8.04329 52.6107 8.02051 52.4707 8.02051C52.1029 8.02051 51.7952 8.14258 51.5479 8.38672C51.3037 8.63086 51.1816 8.96452 51.1816 9.3877V12H50.0732V7.1123H51.1816V7.76172C51.4909 7.26042 51.9303 7.00977 52.5 7.00977ZM56.6846 8.17188H55.4004V10.1396C55.4004 10.4359 55.4818 10.6556 55.6445 10.7988C55.8105 10.9388 56.0368 11.0088 56.3232 11.0088C56.4632 11.0088 56.5837 10.9958 56.6846 10.9697V12C56.512 12.0391 56.3118 12.0586 56.084 12.0586C55.5339 12.0586 55.096 11.8942 54.7705 11.5654C54.445 11.2367 54.2822 10.7679 54.2822 10.1592V8.17188H53.3545V7.1123H54.2822V5.79883H55.4004V7.1123H56.6846V8.17188ZM60.9668 7.1123H62.085V12H60.9668V11.2285C60.8105 11.5085 60.6071 11.7233 60.3564 11.873C60.1058 12.0228 59.8193 12.0977 59.4971 12.0977C58.8656 12.0977 58.3691 11.9023 58.0078 11.5117C57.6465 11.1178 57.4658 10.5775 57.4658 9.89062V7.1123H58.5742V9.75879C58.5742 10.1429 58.6833 10.4505 58.9014 10.6816C59.1195 10.9128 59.4076 11.0283 59.7656 11.0283C60.127 11.0283 60.4167 10.9128 60.6348 10.6816C60.8561 10.4505 60.9668 10.1429 60.9668 9.75879V7.1123ZM65.6836 7.00977C65.791 7.00977 65.9456 7.0293 66.1475 7.06836V8.08887C65.9587 8.04329 65.7943 8.02051 65.6543 8.02051C65.2865 8.02051 64.9788 8.14258 64.7314 8.38672C64.4873 8.63086 64.3652 8.96452 64.3652 9.3877V12H63.2568V7.1123H64.3652V7.76172C64.6745 7.26042 65.1139 7.00977 65.6836 7.00977ZM71.2256 9.45117C71.2256 9.67578 71.2158 9.83203 71.1963 9.91992H67.4463C67.5179 10.2845 67.6774 10.571 67.9248 10.7793C68.1722 10.9876 68.4896 11.0918 68.877 11.0918C69.1764 11.0918 69.4336 11.0267 69.6484 10.8965C69.8665 10.7663 70 10.597 70.0488 10.3887H71.167C71.0758 10.903 70.8187 11.3164 70.3955 11.6289C69.9723 11.9414 69.4596 12.0977 68.8574 12.0977C68.3854 12.0977 67.9557 11.987 67.5684 11.7656C67.181 11.541 66.875 11.2318 66.6504 10.8379C66.429 10.444 66.3184 10.0078 66.3184 9.5293C66.3184 9.0638 66.429 8.639 66.6504 8.25488C66.875 7.86751 67.1794 7.56315 67.5635 7.3418C67.9508 7.12044 68.3757 7.00977 68.8379 7.00977C69.2741 7.00977 69.6729 7.1123 70.0342 7.31738C70.3988 7.52246 70.6885 7.8138 70.9033 8.19141C71.1182 8.56576 71.2256 8.98568 71.2256 9.45117ZM67.4756 8.96777H70.0146C69.9658 8.68457 69.8291 8.45671 69.6045 8.28418C69.3831 8.1084 69.1064 8.02051 68.7744 8.02051C68.4456 8.02051 68.1673 8.10352 67.9395 8.26953C67.7116 8.43555 67.557 8.66829 67.4756 8.96777Z" fill="#D3D3D3"/>
<path d="M11.875 2.875H11.25V2.25C11.25 1.90625 10.9688 1.625 10.625 1.625C10.2812 1.625 10 1.90625 10 2.25V2.875H5V2.25C5 1.90625 4.71875 1.625 4.375 1.625C4.03125 1.625 3.75 1.90625 3.75 2.25V2.875H3.125C2.43125 2.875 1.88125 3.4375 1.88125 4.125L1.875 12.875C1.875 13.5625 2.43125 14.125 3.125 14.125H11.875C12.5625 14.125 13.125 13.5625 13.125 12.875V4.125C13.125 3.4375 12.5625 2.875 11.875 2.875ZM11.25 12.875H3.75C3.40625 12.875 3.125 12.5938 3.125 12.25V6H11.875V12.25C11.875 12.5938 11.5938 12.875 11.25 12.875ZM5 7.25H6.875C7.21875 7.25 7.5 7.53125 7.5 7.875V9.75C7.5 10.0938 7.21875 10.375 6.875 10.375H5C4.65625 10.375 4.375 10.0938 4.375 9.75V7.875C4.375 7.53125 4.65625 7.25 5 7.25Z" fill="#D3D3D3"/>
</svg>
