<svg width="21" height="21" viewBox="0 0 21 21" fill="none" xmlns="http://www.w3.org/2000/svg">
<rect width="21" height="21" rx="3" fill="#D3D8E5"/>
<path d="M8.11125 6.93042C7.68875 6.50792 7.68875 5.82 8.11125 5.3975C8.53375 4.975 9.22167 4.975 9.64417 5.3975C10.0667 5.82 10.0667 6.50792 9.64417 6.93042C9.21625 7.35834 8.53375 7.35834 8.11125 6.93042ZM7.25 12.6667V8.33334C7.25 8.03542 7.00625 7.79167 6.70833 7.79167C6.41042 7.79167 6.16667 8.03542 6.16667 8.33334V12.6667C6.16667 14.1617 7.38 15.375 8.875 15.375H11.5833C11.8812 15.375 12.125 15.1313 12.125 14.8333C12.125 14.5354 11.8812 14.2917 11.5833 14.2917H8.875C7.97583 14.2917 7.25 13.5658 7.25 12.6667ZM14.4433 14.4813L12.4012 12.4392C12.2008 12.2388 11.9246 12.125 11.6375 12.125H10.2292V10.1317C10.8196 10.6138 11.67 11.0525 12.5042 11.2258C12.8671 11.3017 13.2083 11.0308 13.2083 10.6625C13.2083 10.3754 12.9971 10.1425 12.71 10.0938C11.9408 9.96375 11.15 9.54667 10.6788 9.02667L9.92042 8.18709C9.8175 8.07334 9.6875 7.98125 9.54667 7.91625C9.38958 7.84042 9.21083 7.79167 9.02667 7.79167H9.01042C8.33875 7.79167 7.79167 8.33875 7.79167 9.01042V12.125C7.79167 13.0242 8.5175 13.75 9.41667 13.75H12.1629L13.6687 15.2558C13.88 15.4671 14.2321 15.4671 14.4433 15.2558C14.66 15.0446 14.66 14.6979 14.4433 14.4813Z" fill="#223E7C"/>
</svg>
