<svg width="21" height="21" viewBox="0 0 21 21" fill="none" xmlns="http://www.w3.org/2000/svg">
<rect width="21" height="21" rx="3" fill="#D3D8E5"/>
<path d="M8.88041 11.5833H5.62499C5.32708 11.5833 5.08333 11.8271 5.08333 12.125C5.08333 12.4229 5.32708 12.6667 5.62499 12.6667H8.88041V13.6363C8.88041 13.88 9.17291 13.9992 9.34083 13.8258L10.8467 12.3146C10.9496 12.2063 10.9496 12.0383 10.8467 11.93L9.34083 10.4188C9.17291 10.2454 8.88041 10.37 8.88041 10.6083V11.5833ZM12.1196 10.3863V9.41667H15.375C15.6729 9.41667 15.9167 9.17292 15.9167 8.875C15.9167 8.57708 15.6729 8.33333 15.375 8.33333H12.1196V7.36375C12.1196 7.12 11.8271 7.00083 11.6592 7.17417L10.1533 8.68542C10.0504 8.79375 10.0504 8.96167 10.1533 9.07L11.6592 10.5813C11.8271 10.7492 12.1196 10.63 12.1196 10.3863Z" fill="#223E7C"/>
</svg>
