<?xml version="1.0" standalone="no"?>
<!DOCTYPE svg PUBLIC "-//W3C//DTD SVG 20010904//EN"
 "http://www.w3.org/TR/2001/REC-SVG-20010904/DTD/svg10.dtd">
<svg version="1.0" xmlns="http://www.w3.org/2000/svg"
 width="397.000000pt" height="25.000000pt" viewBox="0 0 397.000000 25.000000"
 preserveAspectRatio="xMidYMid meet">

<g transform="translate(0.000000,25.000000) scale(0.100000,-0.100000)"
fill="#000000" stroke="none">
<path d="M94 230 c-57 -23 -73 -109 -28 -154 51 -50 144 -24 159 45 17 77 -57
139 -131 109z m70 -10 c14 -5 32 -23 41 -39 42 -83 -65 -162 -130 -96 -44 43
-26 116 35 138 22 8 26 8 54 -3z"/>
<path d="M3784 230 c-57 -23 -73 -109 -28 -154 51 -50 144 -24 159 45 17 77
-57 139 -131 109z m70 -10 c14 -5 32 -23 41 -39 42 -83 -65 -162 -130 -96 -44
43 -26 116 35 138 22 8 26 8 54 -3z"/>
<path d="M1955 190 c6 -34 4 -40 -11 -40 -10 0 -26 7 -36 17 -17 15 -18 14
-18 -22 0 -30 3 -36 12 -27 7 7 23 12 36 12 22 0 23 -3 17 -40 -4 -22 -4 -40
-2 -40 3 0 16 18 28 40 19 34 28 40 56 40 18 0 33 5 33 10 0 6 -13 10 -30 10
-24 0 -35 8 -55 40 -14 22 -28 40 -31 40 -3 0 -3 -18 1 -40z"/>
</g>
</svg>
