<svg width="46" height="15" viewBox="0 0 46 15" fill="none" xmlns="http://www.w3.org/2000/svg">
<path d="M23.1465 4.99805H27.2773V6.12109H24.3184V7.92773H26.9551V9.05078H24.3184V12H23.1465V4.99805ZM30.4072 7.00977C30.5146 7.00977 30.666 7.0293 30.8711 7.06836V8.08887C30.6807 8.04492 30.5146 8.02051 30.3779 8.02051C30.0068 8.02051 29.6992 8.14258 29.4551 8.38672C29.2109 8.63086 29.0889 8.96777 29.0889 9.3877V12H27.9805V7.1123H29.0889V7.76172C29.3965 7.26367 29.8359 7.00977 30.4072 7.00977ZM33.5713 7.00977C34.2842 7.00977 34.8896 7.25391 35.3779 7.74219C35.8662 8.23047 36.1104 8.83594 36.1104 9.55859C36.1104 10.2812 35.8662 10.8867 35.3779 11.3701C34.8896 11.8584 34.2842 12.0977 33.5713 12.0977C32.8535 12.0977 32.2529 11.8584 31.7695 11.3701C31.2812 10.8867 31.042 10.2812 31.042 9.55859C31.042 8.83594 31.2812 8.23047 31.7695 7.74219C32.2529 7.25391 32.8535 7.00977 33.5713 7.00977ZM33.5713 8.0791C33.1611 8.0791 32.8242 8.2207 32.5508 8.50391C32.2773 8.78711 32.1406 9.13867 32.1406 9.55859C32.1406 9.97852 32.2773 10.3252 32.5508 10.6084C32.8242 10.8916 33.166 11.0283 33.5713 11.0283C33.9766 11.0283 34.3184 10.8867 34.5967 10.6035C34.8701 10.3203 35.0117 9.97363 35.0117 9.55859C35.0117 9.13867 34.8701 8.78711 34.5967 8.50391C34.3184 8.2207 33.9766 8.0791 33.5713 8.0791ZM42.7119 7.00977C43.3076 7.00977 43.7861 7.19531 44.1572 7.55664C44.5283 7.91797 44.7139 8.40625 44.7139 9.01172V12H43.5811V9.26074C43.5811 8.89453 43.4834 8.60645 43.2979 8.39648C43.1074 8.18652 42.8486 8.0791 42.5215 8.0791C42.2188 8.0791 41.96 8.18164 41.75 8.37695C41.5352 8.57715 41.4326 8.87012 41.4326 9.26074V12H40.3145V9.26074C40.3145 8.89453 40.2168 8.60645 40.0264 8.39648C39.8311 8.18652 39.5723 8.0791 39.2402 8.0791C38.9375 8.0791 38.6836 8.18164 38.4688 8.37695C38.2539 8.57715 38.1514 8.87012 38.1514 9.26074V12H37.043V7.1123H38.1514V7.80078C38.3174 7.52734 38.5322 7.32715 38.8008 7.2002C39.0693 7.07324 39.3477 7.00977 39.6406 7.00977C40.3584 7.00977 40.8613 7.29785 41.1543 7.86914C41.291 7.60547 41.501 7.40039 41.7842 7.24414C42.0674 7.08789 42.375 7.00977 42.7119 7.00977Z" fill="#D3D3D3"/>
<path d="M11.4943 12.5687H0.869279C0.525529 12.5687 0.244279 12.8499 0.244279 13.1937C0.244279 13.5374 0.525529 13.8187 0.869279 13.8187H11.4943C11.838 13.8187 12.1193 13.5374 12.1193 13.1937C12.1193 12.8499 11.838 12.5687 11.4943 12.5687ZM12.4755 6.71865C12.338 6.21865 11.8255 5.9249 11.3255 6.05615L8.00678 6.94365L3.96928 3.18115C3.80053 3.01865 3.55678 2.9624 3.33178 3.0249C2.90678 3.14365 2.70678 3.63115 2.92553 4.0124L5.07553 7.7374L1.96928 8.56865L0.988029 7.79365C0.831779 7.6749 0.631779 7.63115 0.438029 7.68115L0.231779 7.7374C0.031779 7.7874 -0.0619709 8.01865 0.0442791 8.19365L1.21928 10.2249C1.36303 10.4687 1.65053 10.5874 1.91928 10.5187L11.8068 7.86865C12.3068 7.73115 12.6068 7.21865 12.4755 6.71865Z" fill="#D3D3D3"/>
</svg>
