<svg width="32" height="9" viewBox="0 0 32 9" fill="none" xmlns="http://www.w3.org/2000/svg">
<path d="M0.639648 0.998047H1.81152V8H0.639648V0.998047ZM5.62988 3.00977C6.25488 3.00977 6.74967 3.20671 7.11426 3.60059C7.47884 3.99447 7.66113 4.53158 7.66113 5.21191V8H6.54297V5.34863C6.54297 4.96452 6.43392 4.6569 6.21582 4.42578C6.00098 4.19466 5.71615 4.0791 5.36133 4.0791C4.99349 4.0791 4.69889 4.19466 4.47754 4.42578C4.25944 4.6569 4.15039 4.96452 4.15039 5.34863V8H3.04199V3.1123H4.15039V3.87891C4.30664 3.60221 4.51172 3.389 4.76562 3.23926C5.01953 3.08626 5.30762 3.00977 5.62988 3.00977ZM11.5479 1.8623C11.2614 1.8623 11.0368 1.93392 10.874 2.07715C10.7113 2.21712 10.6299 2.43522 10.6299 2.73145V3.1123H11.8994V4.17188H10.6299V8H9.51172V4.17188H8.5791V3.1123H9.51172V2.71191C9.51172 2.10319 9.67285 1.63444 9.99512 1.30566C10.3206 0.973633 10.7585 0.807617 11.3086 0.807617C11.5267 0.807617 11.7236 0.828776 11.8994 0.871094V1.90137C11.8115 1.87533 11.6943 1.8623 11.5479 1.8623ZM16.1475 3.1123H17.2705V8H16.1475V7.14062C15.9684 7.44987 15.7324 7.6875 15.4395 7.85352C15.1465 8.01628 14.8063 8.09766 14.4189 8.09766C13.9925 8.09766 13.6003 7.98535 13.2422 7.76074C12.8841 7.53288 12.6009 7.22363 12.3926 6.83301C12.1842 6.43913 12.0801 6.01107 12.0801 5.54883C12.0801 5.08659 12.1842 4.66016 12.3926 4.26953C12.6009 3.87891 12.8841 3.57129 13.2422 3.34668C13.6003 3.12207 13.9925 3.00977 14.4189 3.00977C14.8063 3.00977 15.1465 3.09277 15.4395 3.25879C15.7324 3.4248 15.9684 3.66243 16.1475 3.97168V3.1123ZM14.6582 7.03809C15.0814 7.03809 15.4346 6.89648 15.7178 6.61328C16.0042 6.32682 16.1475 5.97201 16.1475 5.54883C16.1475 5.12891 16.0042 4.77734 15.7178 4.49414C15.4346 4.21094 15.0814 4.06934 14.6582 4.06934C14.2448 4.06934 13.8949 4.21419 13.6084 4.50391C13.3219 4.79036 13.1787 5.13867 13.1787 5.54883C13.1787 5.96549 13.3219 6.31868 13.6084 6.6084C13.8949 6.89486 14.2448 7.03809 14.6582 7.03809ZM21.04 3.00977C21.665 3.00977 22.1598 3.20671 22.5244 3.60059C22.889 3.99447 23.0713 4.53158 23.0713 5.21191V8H21.9531V5.34863C21.9531 4.96452 21.8441 4.6569 21.626 4.42578C21.4111 4.19466 21.1263 4.0791 20.7715 4.0791C20.4036 4.0791 20.109 4.19466 19.8877 4.42578C19.6696 4.6569 19.5605 4.96452 19.5605 5.34863V8H18.4521V3.1123H19.5605V3.87891C19.7168 3.60221 19.9219 3.389 20.1758 3.23926C20.4297 3.08626 20.7178 3.00977 21.04 3.00977ZM26.8896 4.17188H25.6055V6.13965C25.6055 6.43587 25.6868 6.6556 25.8496 6.79883C26.0156 6.9388 26.2419 7.00879 26.5283 7.00879C26.6683 7.00879 26.7887 6.99577 26.8896 6.96973V8C26.7171 8.03906 26.5169 8.05859 26.2891 8.05859C25.7389 8.05859 25.3011 7.89421 24.9756 7.56543C24.6501 7.23665 24.4873 6.7679 24.4873 6.15918V4.17188H23.5596V3.1123H24.4873V1.79883H25.6055V3.1123H26.8896V4.17188ZM29.5898 8.09766C28.9844 8.09766 28.488 7.94954 28.1006 7.65332C27.7132 7.3571 27.4951 6.94857 27.4463 6.42773H28.5156C28.5352 6.63932 28.6393 6.81185 28.8281 6.94531C29.0169 7.07552 29.2497 7.14062 29.5264 7.14062C29.7933 7.14062 30.0033 7.08854 30.1562 6.98438C30.3092 6.88021 30.3857 6.74186 30.3857 6.56934C30.3857 6.42936 30.3337 6.31543 30.2295 6.22754C30.1253 6.13639 29.9902 6.06966 29.8242 6.02734C29.6582 5.98177 29.4743 5.94108 29.2725 5.90527C29.0739 5.86947 28.8737 5.82389 28.6719 5.76855C28.4701 5.71322 28.2861 5.6416 28.1201 5.55371C27.9541 5.46257 27.819 5.3291 27.7148 5.15332C27.6107 4.97428 27.5586 4.75944 27.5586 4.50879C27.5586 4.07585 27.7262 3.71777 28.0615 3.43457C28.4001 3.15137 28.8493 3.00977 29.4092 3.00977C29.9365 3.00977 30.3874 3.14486 30.7617 3.41504C31.1361 3.68522 31.3509 4.05957 31.4062 4.53809H30.2881C30.262 4.36556 30.1676 4.22396 30.0049 4.11328C29.8421 3.99935 29.637 3.94238 29.3896 3.94238C29.1683 3.94238 28.9876 3.98796 28.8477 4.0791C28.7077 4.16699 28.6377 4.28743 28.6377 4.44043C28.6377 4.55762 28.6784 4.65527 28.7598 4.7334C28.8411 4.81152 28.9486 4.86849 29.082 4.9043C29.2155 4.93685 29.3669 4.97103 29.5361 5.00684C29.7054 5.04264 29.8796 5.0752 30.0586 5.10449C30.2376 5.13379 30.4118 5.18424 30.5811 5.25586C30.7503 5.32422 30.9017 5.40723 31.0352 5.50488C31.1686 5.60254 31.276 5.74251 31.3574 5.9248C31.4388 6.10384 31.4795 6.31543 31.4795 6.55957C31.4795 6.99902 31.2988 7.36523 30.9375 7.6582C30.5794 7.95117 30.1302 8.09766 29.5898 8.09766Z" fill="#D3D3D3"/>
</svg>
