<svg width="88" height="16" viewBox="0 0 88 16" fill="none" xmlns="http://www.w3.org/2000/svg">
<path d="M28.9844 4.59766C29.7578 4.59766 30.3984 4.8418 30.9062 5.33008C31.418 5.81836 31.6738 6.43164 31.6738 7.16992C31.6738 7.91992 31.418 8.53906 30.9062 9.02734C30.3984 9.51562 29.7578 9.75977 28.9844 9.75977H27.1738V13H25.7676V4.59766H28.9844ZM28.9844 8.41797C29.3477 8.41797 29.6504 8.29883 29.8926 8.06055C30.1348 7.82227 30.2559 7.52539 30.2559 7.16992C30.2559 6.82227 30.1348 6.53125 29.8926 6.29688C29.6504 6.0625 29.3477 5.94531 28.9844 5.94531H27.1738V8.41797H28.9844ZM36.8652 7.13477H38.2129V13H36.8652V11.9688C36.6504 12.3398 36.3672 12.625 36.0156 12.8242C35.6641 13.0195 35.2559 13.1172 34.791 13.1172C34.2793 13.1172 33.8086 12.9824 33.3789 12.7129C32.9492 12.4395 32.6094 12.0684 32.3594 11.5996C32.1094 11.127 31.9844 10.6133 31.9844 10.0586C31.9844 9.50391 32.1094 8.99219 32.3594 8.52344C32.6094 8.05469 32.9492 7.68555 33.3789 7.41602C33.8086 7.14648 34.2793 7.01172 34.791 7.01172C35.2559 7.01172 35.6641 7.11133 36.0156 7.31055C36.3672 7.50977 36.6504 7.79492 36.8652 8.16602V7.13477ZM35.0781 11.8457C35.5859 11.8457 36.0098 11.6758 36.3496 11.3359C36.6934 10.9922 36.8652 10.5664 36.8652 10.0586C36.8652 9.55469 36.6934 9.13281 36.3496 8.79297C36.0098 8.45312 35.5859 8.2832 35.0781 8.2832C34.582 8.2832 34.1621 8.45703 33.8184 8.80469C33.4746 9.14844 33.3027 9.56641 33.3027 10.0586C33.3027 10.5586 33.4746 10.9824 33.8184 11.3301C34.1621 11.6738 34.582 11.8457 35.0781 11.8457ZM41.8164 13.1172C41.0898 13.1172 40.4941 12.9395 40.0293 12.584C39.5645 12.2285 39.3027 11.7383 39.2441 11.1133H40.5273C40.5508 11.3672 40.6758 11.5742 40.9023 11.7344C41.1289 11.8906 41.4082 11.9688 41.7402 11.9688C42.0605 11.9688 42.3125 11.9062 42.4961 11.7812C42.6797 11.6562 42.7715 11.4902 42.7715 11.2832C42.7715 11.1152 42.709 10.9785 42.584 10.873C42.459 10.7637 42.2969 10.6836 42.0977 10.6328C41.8984 10.5781 41.6777 10.5293 41.4355 10.4863C41.1973 10.4434 40.957 10.3887 40.7148 10.3223C40.4727 10.2559 40.252 10.1699 40.0527 10.0645C39.8535 9.95508 39.6914 9.79492 39.5664 9.58398C39.4414 9.36914 39.3789 9.11133 39.3789 8.81055C39.3789 8.29102 39.5801 7.86133 39.9824 7.52148C40.3887 7.18164 40.9277 7.01172 41.5996 7.01172C42.2324 7.01172 42.7734 7.17383 43.2227 7.49805C43.6719 7.82227 43.9297 8.27148 43.9961 8.8457H42.6543C42.623 8.63867 42.5098 8.46875 42.3145 8.33594C42.1191 8.19922 41.873 8.13086 41.5762 8.13086C41.3105 8.13086 41.0938 8.18555 40.9258 8.29492C40.7578 8.40039 40.6738 8.54492 40.6738 8.72852C40.6738 8.86914 40.7227 8.98633 40.8203 9.08008C40.918 9.17383 41.0469 9.24219 41.207 9.28516C41.3672 9.32422 41.5488 9.36523 41.752 9.4082C41.9551 9.45117 42.1641 9.49023 42.3789 9.52539C42.5938 9.56055 42.8027 9.62109 43.0059 9.70703C43.209 9.78906 43.3906 9.88867 43.5508 10.0059C43.7109 10.123 43.8398 10.291 43.9375 10.5098C44.0352 10.7246 44.084 10.9785 44.084 11.2715C44.084 11.7988 43.8672 12.2383 43.4336 12.5898C43.0039 12.9414 42.4648 13.1172 41.8164 13.1172ZM47.3008 13.1172C46.5742 13.1172 45.9785 12.9395 45.5137 12.584C45.0488 12.2285 44.7871 11.7383 44.7285 11.1133H46.0117C46.0352 11.3672 46.1602 11.5742 46.3867 11.7344C46.6133 11.8906 46.8926 11.9688 47.2246 11.9688C47.5449 11.9688 47.7969 11.9062 47.9805 11.7812C48.1641 11.6562 48.2559 11.4902 48.2559 11.2832C48.2559 11.1152 48.1934 10.9785 48.0684 10.873C47.9434 10.7637 47.7812 10.6836 47.582 10.6328C47.3828 10.5781 47.1621 10.5293 46.9199 10.4863C46.6816 10.4434 46.4414 10.3887 46.1992 10.3223C45.957 10.2559 45.7363 10.1699 45.5371 10.0645C45.3379 9.95508 45.1758 9.79492 45.0508 9.58398C44.9258 9.36914 44.8633 9.11133 44.8633 8.81055C44.8633 8.29102 45.0645 7.86133 45.4668 7.52148C45.873 7.18164 46.4121 7.01172 47.084 7.01172C47.7168 7.01172 48.2578 7.17383 48.707 7.49805C49.1562 7.82227 49.4141 8.27148 49.4805 8.8457H48.1387C48.1074 8.63867 47.9941 8.46875 47.7988 8.33594C47.6035 8.19922 47.3574 8.13086 47.0605 8.13086C46.7949 8.13086 46.5781 8.18555 46.4102 8.29492C46.2422 8.40039 46.1582 8.54492 46.1582 8.72852C46.1582 8.86914 46.207 8.98633 46.3047 9.08008C46.4023 9.17383 46.5312 9.24219 46.6914 9.28516C46.8516 9.32422 47.0332 9.36523 47.2363 9.4082C47.4395 9.45117 47.6484 9.49023 47.8633 9.52539C48.0781 9.56055 48.2871 9.62109 48.4902 9.70703C48.6934 9.78906 48.875 9.88867 49.0352 10.0059C49.1953 10.123 49.3242 10.291 49.4219 10.5098C49.5195 10.7246 49.5684 10.9785 49.5684 11.2715C49.5684 11.7988 49.3516 12.2383 48.918 12.5898C48.4883 12.9414 47.9492 13.1172 47.3008 13.1172ZM56.2129 9.94141C56.2129 10.2109 56.2012 10.3984 56.1777 10.5039H51.6777C51.7637 10.9414 51.9551 11.2852 52.252 11.5352C52.5488 11.7852 52.9297 11.9102 53.3945 11.9102C53.7539 11.9102 54.0625 11.832 54.3203 11.6758C54.582 11.5195 54.7422 11.3164 54.8008 11.0664H56.1426C56.0332 11.6836 55.7246 12.1797 55.2168 12.5547C54.709 12.9297 54.0938 13.1172 53.3711 13.1172C52.8047 13.1172 52.2891 12.9844 51.8242 12.7188C51.3594 12.4492 50.9922 12.0781 50.7227 11.6055C50.457 11.1328 50.3242 10.6094 50.3242 10.0352C50.3242 9.47656 50.457 8.9668 50.7227 8.50586C50.9922 8.04102 51.3574 7.67578 51.8184 7.41016C52.2832 7.14453 52.793 7.01172 53.3477 7.01172C53.8711 7.01172 54.3496 7.13477 54.7832 7.38086C55.2207 7.62695 55.5684 7.97656 55.8262 8.42969C56.084 8.87891 56.2129 9.38281 56.2129 9.94141ZM51.7129 9.36133H54.7598C54.7012 9.02148 54.5371 8.74805 54.2676 8.54102C54.002 8.33008 53.6699 8.22461 53.2715 8.22461C52.877 8.22461 52.543 8.32422 52.2695 8.52344C51.9961 8.72266 51.8105 9.00195 51.7129 9.36133ZM60.4316 7.01172C61.1816 7.01172 61.7754 7.24805 62.2129 7.7207C62.6504 8.19336 62.8691 8.83789 62.8691 9.6543V13H61.5273V9.81836C61.5273 9.35742 61.3965 8.98828 61.1348 8.71094C60.877 8.43359 60.5352 8.29492 60.1094 8.29492C59.668 8.29492 59.3145 8.43359 59.0488 8.71094C58.7871 8.98828 58.6562 9.35742 58.6562 9.81836V13H57.3262V7.13477H58.6562V8.05469C58.8438 7.72266 59.0898 7.4668 59.3945 7.28711C59.6992 7.10352 60.0449 7.01172 60.4316 7.01172ZM68.8574 7.11719H70.2051V12.7832C70.2051 13.5918 69.9238 14.2383 69.3613 14.7227C68.8027 15.207 68.0879 15.4492 67.2168 15.4492C66.9668 15.4492 66.7148 15.4277 66.4609 15.3848C66.2109 15.3457 65.9551 15.2734 65.6934 15.168C65.4316 15.0625 65.1992 14.9316 64.9961 14.7754C64.7969 14.6191 64.6289 14.4141 64.4922 14.1602C64.3594 13.9102 64.2871 13.627 64.2754 13.3105H65.6055C65.6211 13.627 65.7773 13.875 66.0742 14.0547C66.375 14.2383 66.7422 14.3301 67.1758 14.3301C67.6484 14.3301 68.0469 14.1895 68.3711 13.9082C68.6953 13.6309 68.8574 13.2715 68.8574 12.8301V11.8223C68.6426 12.1855 68.3594 12.4648 68.0078 12.6602C67.6562 12.8555 67.248 12.9531 66.7832 12.9531C66.0059 12.9531 65.3438 12.6641 64.7969 12.0859C64.25 11.5039 63.9766 10.8008 63.9766 9.97656C63.9766 9.4375 64.1016 8.94141 64.3516 8.48828C64.6016 8.03125 64.9414 7.67188 65.3711 7.41016C65.8008 7.14453 66.2715 7.01172 66.7832 7.01172C67.248 7.01172 67.6562 7.10938 68.0078 7.30469C68.3594 7.49609 68.6426 7.77148 68.8574 8.13086V7.11719ZM67.0703 11.7051C67.582 11.7051 68.0078 11.541 68.3477 11.2129C68.6875 10.8848 68.8574 10.4727 68.8574 9.97656C68.8574 9.48438 68.6855 9.07422 68.3418 8.74609C68.002 8.41406 67.5781 8.24805 67.0703 8.24805C66.5742 8.24805 66.1543 8.41602 65.8105 8.75195C65.4668 9.08789 65.2949 9.49609 65.2949 9.97656C65.2949 10.4609 65.4648 10.8711 65.8047 11.207C66.1484 11.5391 66.5703 11.7051 67.0703 11.7051ZM77.2129 9.94141C77.2129 10.2109 77.2012 10.3984 77.1777 10.5039H72.6777C72.7637 10.9414 72.9551 11.2852 73.252 11.5352C73.5488 11.7852 73.9297 11.9102 74.3945 11.9102C74.7539 11.9102 75.0625 11.832 75.3203 11.6758C75.582 11.5195 75.7422 11.3164 75.8008 11.0664H77.1426C77.0332 11.6836 76.7246 12.1797 76.2168 12.5547C75.709 12.9297 75.0938 13.1172 74.3711 13.1172C73.8047 13.1172 73.2891 12.9844 72.8242 12.7188C72.3594 12.4492 71.9922 12.0781 71.7227 11.6055C71.457 11.1328 71.3242 10.6094 71.3242 10.0352C71.3242 9.47656 71.457 8.9668 71.7227 8.50586C71.9922 8.04102 72.3574 7.67578 72.8184 7.41016C73.2832 7.14453 73.793 7.01172 74.3477 7.01172C74.8711 7.01172 75.3496 7.13477 75.7832 7.38086C76.2207 7.62695 76.5684 7.97656 76.8262 8.42969C77.084 8.87891 77.2129 9.38281 77.2129 9.94141ZM72.7129 9.36133H75.7598C75.7012 9.02148 75.5371 8.74805 75.2676 8.54102C75.002 8.33008 74.6699 8.22461 74.2715 8.22461C73.877 8.22461 73.543 8.32422 73.2695 8.52344C72.9961 8.72266 72.8105 9.00195 72.7129 9.36133ZM81.2383 7.01172C81.3672 7.01172 81.5527 7.03516 81.7949 7.08203V8.30664C81.5684 8.25195 81.3711 8.22461 81.2031 8.22461C80.7617 8.22461 80.3926 8.37109 80.0957 8.66406C79.8027 8.95703 79.6562 9.35742 79.6562 9.86523V13H78.3262V7.13477H79.6562V7.91406C80.0273 7.3125 80.5547 7.01172 81.2383 7.01172ZM84.7656 13.1172C84.0391 13.1172 83.4434 12.9395 82.9785 12.584C82.5137 12.2285 82.252 11.7383 82.1934 11.1133H83.4766C83.5 11.3672 83.625 11.5742 83.8516 11.7344C84.0781 11.8906 84.3574 11.9688 84.6895 11.9688C85.0098 11.9688 85.2617 11.9062 85.4453 11.7812C85.6289 11.6562 85.7207 11.4902 85.7207 11.2832C85.7207 11.1152 85.6582 10.9785 85.5332 10.873C85.4082 10.7637 85.2461 10.6836 85.0469 10.6328C84.8477 10.5781 84.627 10.5293 84.3848 10.4863C84.1465 10.4434 83.9062 10.3887 83.6641 10.3223C83.4219 10.2559 83.2012 10.1699 83.002 10.0645C82.8027 9.95508 82.6406 9.79492 82.5156 9.58398C82.3906 9.36914 82.3281 9.11133 82.3281 8.81055C82.3281 8.29102 82.5293 7.86133 82.9316 7.52148C83.3379 7.18164 83.877 7.01172 84.5488 7.01172C85.1816 7.01172 85.7227 7.17383 86.1719 7.49805C86.6211 7.82227 86.8789 8.27148 86.9453 8.8457H85.6035C85.5723 8.63867 85.459 8.46875 85.2637 8.33594C85.0684 8.19922 84.8223 8.13086 84.5254 8.13086C84.2598 8.13086 84.043 8.18555 83.875 8.29492C83.707 8.40039 83.623 8.54492 83.623 8.72852C83.623 8.86914 83.6719 8.98633 83.7695 9.08008C83.8672 9.17383 83.9961 9.24219 84.1562 9.28516C84.3164 9.32422 84.498 9.36523 84.7012 9.4082C84.9043 9.45117 85.1133 9.49023 85.3281 9.52539C85.543 9.56055 85.752 9.62109 85.9551 9.70703C86.1582 9.78906 86.3398 9.88867 86.5 10.0059C86.6602 10.123 86.7891 10.291 86.8867 10.5098C86.9844 10.7246 87.0332 10.9785 87.0332 11.2715C87.0332 11.7988 86.8164 12.2383 86.3828 12.5898C85.9531 12.9414 85.4141 13.1172 84.7656 13.1172Z" fill="#080403"/>
<path d="M4.74375 3.38126C4.25625 2.89376 4.25625 2.10001 4.74375 1.61251C5.23125 1.12501 6.025 1.12501 6.5125 1.61251C7 2.10001 7 2.89376 6.5125 3.38126C6.01875 3.87501 5.23125 3.87501 4.74375 3.38126ZM3.75 10V5.00001C3.75 4.65626 3.46875 4.37501 3.125 4.37501C2.78125 4.37501 2.5 4.65626 2.5 5.00001V10C2.5 11.725 3.9 13.125 5.625 13.125H8.75C9.09375 13.125 9.375 12.8438 9.375 12.5C9.375 12.1563 9.09375 11.875 8.75 11.875H5.625C4.5875 11.875 3.75 11.0375 3.75 10ZM12.05 12.0938L9.69375 9.73751C9.4625 9.50626 9.14375 9.37501 8.8125 9.37501H7.1875V7.07501C7.86875 7.63126 8.85 8.13751 9.8125 8.33751C10.2312 8.42501 10.625 8.11251 10.625 7.68751C10.625 7.35626 10.3812 7.08751 10.05 7.03126C9.1625 6.88126 8.25 6.40001 7.70625 5.80001L6.83125 4.83126C6.7125 4.70001 6.5625 4.59376 6.4 4.51876C6.21875 4.43126 6.0125 4.37501 5.8 4.37501H5.78125C5.00625 4.37501 4.375 5.00626 4.375 5.78126V9.37501C4.375 10.4125 5.2125 11.25 6.25 11.25H9.41875L11.1562 12.9875C11.4 13.2313 11.8063 13.2313 12.05 12.9875C12.3 12.7438 12.3 12.3438 12.05 12.0938Z" fill="#080403"/>
</svg>
