<svg width="36" height="18" viewBox="0 0 36 18" fill="none" xmlns="http://www.w3.org/2000/svg">
<path d="M30.2256 4.99805V6.12109H28.0771V12H26.9102V6.12109H24.7568V4.99805H30.2256ZM30.4307 7.74219C30.9157 7.25391 31.5163 7.00977 32.2324 7.00977C32.9486 7.00977 33.5508 7.25391 34.0391 7.74219C34.5273 8.23047 34.7715 8.83594 34.7715 9.55859C34.7715 10.2812 34.5273 10.8851 34.0391 11.3701C33.5508 11.8551 32.9486 12.0977 32.2324 12.0977C31.5163 12.0977 30.9157 11.8551 30.4307 11.3701C29.9456 10.8851 29.7031 10.2812 29.7031 9.55859C29.7031 8.83594 29.9456 8.23047 30.4307 7.74219ZM33.2578 8.50391C32.9811 8.2207 32.6393 8.0791 32.2324 8.0791C31.8255 8.0791 31.4854 8.2207 31.2119 8.50391C30.9385 8.78711 30.8018 9.13867 30.8018 9.55859C30.8018 9.97526 30.9385 10.3252 31.2119 10.6084C31.4886 10.8883 31.8288 11.0283 32.2324 11.0283C32.6393 11.0283 32.9811 10.8867 33.2578 10.6035C33.5345 10.3203 33.6729 9.97201 33.6729 9.55859C33.6729 9.13867 33.5345 8.78711 33.2578 8.50391Z" fill="#D3D3D3"/>
<path d="M12.8125 14.875H2.1875C1.84375 14.875 1.5625 15.1563 1.5625 15.5C1.5625 15.8438 1.84375 16.125 2.1875 16.125H12.8125C13.1562 16.125 13.4375 15.8438 13.4375 15.5C13.4375 15.1563 13.1562 14.875 12.8125 14.875ZM2.19375 10.2563L12.0875 12.9063C12.5875 13.0375 13.1 12.7438 13.2375 12.2438C13.3688 11.7438 13.075 11.2313 12.575 11.0938L9.25625 10.2063L7.64375 4.92501C7.575 4.70001 7.4 4.53126 7.175 4.46876C6.75 4.35626 6.33125 4.67501 6.33125 5.11876V9.41876L3.21875 8.59376L2.75 7.43126C2.675 7.25001 2.525 7.11251 2.33125 7.06251L2.125 7.00626C1.925 6.95001 1.73125 7.10001 1.73125 7.30626V9.65001C1.73125 9.93751 1.91875 10.1813 2.19375 10.2563Z" fill="#D3D3D3"/>
</svg>
